# xmcd
#
# Track frame offsets:
#       150
#       16928
#       43591
#       61203
#       76878
#       101652
#       114341
#       140202
#       159672
#       170997
#       193747
#       214677
#       247834
#
# Disc length: 3504 seconds
#
# Revision: 0
# Processed by: cddbd v1.4PL0 Copyright (c) Steve Scherf et al.
# Submitted via: CD-DA_X-Tractor v0.24
#
DISCID=b10dae0d
DTITLE=John Marx - ...with a feeling
DYEAR=2003
DGENRE=West Coast
TTITLE0=Ever Since I Was A Child
TTITLE1=V.B. Blues
TTITLE2=Tryin' To Get A Line On You
TTITLE3=Grinnin' In Your Face
TTITLE4=A Winner
TTITLE5=Cozy's Shuffle
TTITLE6=My Heart Is Hanging Heavy
TTITLE7=Brother John's
TTITLE8=I Found A New Love
TTITLE9=Somebody Take This Gun
TTITLE10=The Same All Over
TTITLE11=As The Years Go Passing By
TTITLE12=The Journey of R.A.H.
EXTD=
EXTT0=
EXTT1=
EXTT2=
EXTT3=
EXTT4=
EXTT5=
EXTT6=
EXTT7=
EXTT8=
EXTT9=
EXTT10=
EXTT11=
EXTT12=
PLAYORDER=
